<svg
  width="50"
  height="40"
  viewBox="0 0 50 40"
  xmlns="http://www.w3.org/2000/svg"
  fill="red"
>
<path
    d="M17.5609 16.2558H12.6444L12.346 18.8662H16.2556V21.5358H12.0409L11.7426 24.1462H16.2557V28.121C16.2557 28.8418 16.84 29.4262 17.5609 29.4262C18.2817 29.4262 18.866 28.8418 18.866 28.121V17.561C18.866 16.8402 18.2817 16.2558 17.5609 16.2558Z"
  />
<path
    d="M5.12719 18.8662H8.16622L8.46463 16.2559H5.09658C5.02373 14.3812 4.84373 12.4117 4.55588 10.3505C3.80826 4.99712 2.60287 1.08267 2.55197 0.91869C2.33816 0.230271 1.60655 -0.154279 0.918368 0.0594127C0.229949 0.273224 -0.15472 1.00459 0.0590905 1.69301C0.106433 1.8456 4.75593 17.0723 1.13787 27.7006C0.905554 28.3829 1.27041 29.1244 1.95278 29.3567C2.09219 29.4042 2.23398 29.4267 2.37352 29.4267C2.91682 29.4267 3.42418 29.0848 3.60892 28.5418C4.07273 27.1793 4.43082 25.7127 4.68308 24.1464H7.56276L7.86117 21.536H4.99798C5.06953 20.6722 5.11212 19.7817 5.12719 18.8662Z"
  />
<path
    d="M49.0816 0.0592328C48.393 -0.154934 47.6618 0.229973 47.448 0.91851C47.3971 1.08249 46.1917 4.99694 45.4441 10.3503C45.1562 12.4115 44.9762 14.3811 44.9034 16.2557H41.5353L41.8337 18.866H44.8728C44.8878 19.7816 44.9304 20.6721 45.002 21.5357H42.1388L42.4371 24.1461H45.3169C45.5691 25.7124 45.9272 27.1789 46.391 28.5415C46.5759 29.0845 47.083 29.4264 47.6264 29.4264C47.7659 29.4264 47.9079 29.404 48.0472 29.3564C48.7295 29.1241 49.0944 28.3827 48.8621 27.7003C45.2517 17.0951 49.8869 1.86737 49.9409 1.69271C50.1548 1.00441 49.77 0.273044 49.0816 0.0592328Z"
  />
<path
    d="M33.7443 21.5358V18.8662H37.6539L37.3555 16.2558H32.4391C31.7183 16.2558 31.1339 16.8402 31.1339 17.561V28.121C31.1339 28.8418 31.7183 29.4262 32.4391 29.4262C33.1599 29.4262 33.7443 28.8418 33.7443 28.121V24.1462H38.2572L37.9589 21.5358H33.7443Z"
  />
<path
    d="M39.9367 9.05982H40.9585C42.0728 9.05982 42.976 8.15676 42.976 7.04274C42.976 5.92847 42.0728 5.02518 40.9585 5.02518H9.0414C7.92714 5.02518 7.02408 5.92847 7.02408 7.04274C7.02408 8.15676 7.92714 9.05982 9.0414 9.05982H10.0632L7.89285 28.0502C7.81098 28.7664 8.32522 29.4133 9.0414 29.4951C9.75782 29.5777 10.4045 29.0628 10.4863 28.3466L12.6905 9.0597H37.3094L39.5136 28.3466C39.5897 29.0125 40.1542 29.5037 40.8087 29.5037C40.8582 29.5037 40.9082 29.5009 40.9585 29.4951C41.6747 29.4134 42.189 28.7664 42.1071 28.0502L39.9367 9.05982Z"
  />
<path
    d="M4.79488 39.0478C4.30861 39.0478 3.91441 38.6536 3.91441 38.1673V38.1673C3.91441 37.9251 4.01421 37.6936 4.19033 37.5272L7.15441 34.7278C7.41041 34.4958 7.59841 34.2878 7.71841 34.1038C7.83841 33.9198 7.91841 33.7518 7.95841 33.5998C8.00641 33.4478 8.03041 33.3078 8.03041 33.1798C8.03041 32.8438 7.91441 32.5878 7.68241 32.4118C7.45841 32.2278 7.12641 32.1358 6.68641 32.1358C6.33441 32.1358 6.00641 32.2038 5.70241 32.3398C5.64585 32.3658 5.5909 32.3946 5.53756 32.4261C5.14513 32.6581 4.64613 32.7824 4.26287 32.5356V32.5356C3.86023 32.2762 3.74361 31.7258 4.10919 31.4165C4.33253 31.2274 4.5876 31.0632 4.87441 30.9238C5.45041 30.6438 6.11441 30.5038 6.86641 30.5038C7.49041 30.5038 8.03441 30.6078 8.49841 30.8158C8.97041 31.0158 9.33441 31.2998 9.59041 31.6678C9.85441 32.0358 9.98641 32.4758 9.98641 32.9878C9.98641 33.2598 9.95041 33.5318 9.87841 33.8038C9.81441 34.0678 9.67841 34.3478 9.47041 34.6438C9.27041 34.9398 8.97441 35.2718 8.58241 35.6398L6.15235 37.9288C6.02274 38.0509 5.81241 38.0157 5.72958 37.8581V37.8581C5.63542 37.6789 5.76539 37.4638 5.96782 37.4638H9.47041C9.90782 37.4638 10.2624 37.8184 10.2624 38.2558V38.2558C10.2624 38.6932 9.90782 39.0478 9.47041 39.0478H4.79488Z"
  />
<path
    d="M17.031 39.1438C16.479 39.1438 15.947 39.0798 15.435 38.9518C15.2005 38.8886 14.9886 38.8184 14.7992 38.7413C14.4591 38.6028 14.3487 38.203 14.5033 37.87V37.87C14.6923 37.4627 15.1979 37.3137 15.6201 37.4665C15.7113 37.4995 15.8056 37.5306 15.903 37.5598C16.311 37.6718 16.711 37.7278 17.103 37.7278C17.535 37.7278 17.839 37.6758 18.015 37.5718C18.199 37.4678 18.291 37.3238 18.291 37.1398C18.291 36.9878 18.219 36.8758 18.075 36.8038C17.939 36.7238 17.755 36.6638 17.523 36.6238C17.291 36.5838 17.035 36.5438 16.755 36.5038C16.483 36.4638 16.207 36.4118 15.927 36.3478C15.647 36.2758 15.391 36.1718 15.159 36.0358C14.927 35.8998 14.739 35.7158 14.595 35.4838C14.459 35.2518 14.391 34.9518 14.391 34.5838C14.391 34.1758 14.507 33.8158 14.739 33.5038C14.979 33.1918 15.323 32.9478 15.771 32.7718C16.219 32.5878 16.755 32.4958 17.379 32.4958C17.819 32.4958 18.267 32.5438 18.723 32.6398C18.9164 32.6805 19.0961 32.7292 19.2622 32.7857C19.6184 32.907 19.7419 33.3183 19.5823 33.659V33.659C19.3982 34.052 18.9165 34.1882 18.4989 34.07C18.4298 34.0504 18.3605 34.0337 18.291 34.0198C17.979 33.9478 17.675 33.9118 17.379 33.9118C16.963 33.9118 16.659 33.9678 16.467 34.0798C16.275 34.1918 16.179 34.3358 16.179 34.5118C16.179 34.6718 16.247 34.7918 16.383 34.8718C16.527 34.9518 16.715 35.0158 16.947 35.0638C17.179 35.1118 17.431 35.1558 17.703 35.1958C17.983 35.2278 18.263 35.2798 18.543 35.3518C18.823 35.4238 19.075 35.5278 19.299 35.6638C19.531 35.7918 19.719 35.9718 19.863 36.2038C20.007 36.4278 20.079 36.7238 20.079 37.0918C20.079 37.4918 19.959 37.8478 19.719 38.1598C19.479 38.4638 19.131 38.7038 18.675 38.8798C18.227 39.0558 17.679 39.1438 17.031 39.1438Z"
  />
<path
    d="M24.438 39.1438C23.702 39.1438 23.054 38.9998 22.494 38.7118C21.942 38.4238 21.514 38.0318 21.21 37.5358C20.906 37.0318 20.754 36.4598 20.754 35.8198C20.754 35.1718 20.902 34.5998 21.198 34.1038C21.502 33.5998 21.914 33.2078 22.434 32.9278C22.954 32.6398 23.542 32.4958 24.198 32.4958C24.83 32.4958 25.398 32.6318 25.902 32.9038C26.414 33.1678 26.818 33.5518 27.114 34.0558C27.41 34.5518 27.558 35.1478 27.558 35.8438C27.558 35.9158 27.554 35.9998 27.546 36.0958V36.0958C27.533 36.2389 27.4125 36.3478 27.2688 36.3478H22.824C22.5224 36.3478 22.278 36.1034 22.278 35.8018V35.8018C22.278 35.5003 22.5224 35.2558 22.824 35.2558H25.9452C26.0823 35.2558 26.1224 35.4428 25.9974 35.4991V35.4991C25.9132 35.537 25.8177 35.4752 25.8098 35.3832C25.788 35.1286 25.7227 34.9021 25.614 34.7038C25.478 34.4558 25.29 34.2638 25.05 34.1278C24.81 33.9838 24.53 33.9118 24.21 33.9118C23.89 33.9118 23.606 33.9838 23.358 34.1278C23.118 34.2638 22.93 34.4598 22.794 34.7158C22.658 34.9638 22.59 35.2598 22.59 35.6038V35.8918C22.59 36.2438 22.666 36.5558 22.818 36.8278C22.978 37.0918 23.198 37.2958 23.478 37.4398C23.766 37.5758 24.102 37.6438 24.486 37.6438C24.83 37.6438 25.13 37.5918 25.386 37.4878C25.412 37.4776 25.4377 37.4668 25.4632 37.4556C25.8552 37.2829 26.3448 37.2787 26.6352 37.5936V37.5936C26.9004 37.8813 26.9101 38.3332 26.5882 38.5557C26.4056 38.6819 26.2049 38.7899 25.986 38.8798C25.538 39.0558 25.022 39.1438 24.438 39.1438Z"
  />
<path
    d="M33.4645 39.0478C32.9807 39.0478 32.5885 38.6556 32.5885 38.1718V37.9383C32.5885 37.839 32.5681 37.7408 32.5285 37.6498V37.6498C32.4889 37.5588 32.4685 37.4606 32.4685 37.3613V35.2558C32.4685 34.8558 32.3445 34.5438 32.0965 34.3198C31.8565 34.0958 31.4845 33.9838 30.9805 33.9838C30.6365 33.9838 30.2965 34.0398 29.9605 34.1518C29.931 34.1612 29.902 34.1708 29.8733 34.1808C29.4539 34.3268 28.9314 34.2157 28.7284 33.8207V33.8207C28.5679 33.5083 28.6605 33.1194 28.9783 32.9699C29.2046 32.8635 29.452 32.7734 29.7205 32.6998C30.2165 32.5638 30.7205 32.4958 31.2325 32.4958C32.2165 32.4958 32.9805 32.7278 33.5245 33.1918C34.0685 33.6558 34.3405 34.3798 34.3405 35.3638V38.1718C34.3405 38.6556 33.9483 39.0478 33.4645 39.0478V39.0478ZM30.6205 39.1438C30.1165 39.1438 29.6845 39.0598 29.3245 38.8918C28.9645 38.7158 28.6885 38.4798 28.4965 38.1838C28.3045 37.8878 28.2085 37.5558 28.2085 37.1878C28.2085 36.8038 28.3005 36.4678 28.4845 36.1798C28.6765 35.8918 28.9765 35.6678 29.3845 35.5078C29.7925 35.3398 30.3245 35.2558 30.9805 35.2558H32.1505C32.452 35.2558 32.6965 35.5003 32.6965 35.8018V35.8018C32.6965 36.1034 32.452 36.3478 32.1505 36.3478H31.1845C30.7445 36.3478 30.4405 36.4198 30.2725 36.5638C30.1125 36.7078 30.0325 36.8878 30.0325 37.1038C30.0325 37.3438 30.1245 37.5358 30.3085 37.6798C30.5005 37.8158 30.7605 37.8838 31.0885 37.8838C31.4005 37.8838 31.6805 37.8118 31.9285 37.6678C31.9442 37.6582 31.9595 37.6484 31.9746 37.6382C32.203 37.4851 32.6389 37.519 32.7258 37.7798V37.7798C32.7458 37.8396 32.7466 37.9044 32.7242 37.9633C32.5829 38.3344 32.3456 38.6199 32.0125 38.8198C31.6525 39.0358 31.1885 39.1438 30.6205 39.1438Z"
  />
<path
    d="M38.6748 39.1438C37.9148 39.1438 37.3228 38.9518 36.8988 38.5678C36.4748 38.1758 36.2628 37.5958 36.2628 36.8278V32.0998C36.2628 31.5829 36.6818 31.1638 37.1988 31.1638V31.1638C37.7157 31.1638 38.1348 31.5829 38.1348 32.0998V36.8038C38.1348 37.0758 38.2067 37.2878 38.3507 37.4398C38.4948 37.5838 38.6908 37.6558 38.9388 37.6558V37.6558C39.3416 37.6558 39.8393 37.7944 39.983 38.1708L40.0143 38.2527C40.1229 38.537 40.0263 38.8673 39.7408 38.9729C39.6652 39.0008 39.5858 39.0258 39.5028 39.0478C39.2388 39.1118 38.9628 39.1438 38.6748 39.1438ZM35.9868 34.1758C35.5891 34.1758 35.2668 33.8535 35.2668 33.4558V33.4558C35.2668 33.0582 35.5891 32.7358 35.9868 32.7358H39.0228C39.4204 32.7358 39.7428 33.0582 39.7428 33.4558V33.4558C39.7428 33.8535 39.4204 34.1758 39.0228 34.1758H35.9868Z"
  />
<path
    d="M43.4216 39.1438C42.8696 39.1438 42.3376 39.0798 41.8256 38.9518C41.5912 38.8886 41.3792 38.8184 41.1898 38.7413C40.8497 38.6028 40.7393 38.203 40.8939 37.87V37.87C41.083 37.4627 41.5886 37.3137 42.0107 37.4665C42.1019 37.4995 42.1962 37.5306 42.2936 37.5598C42.7016 37.6718 43.1016 37.7278 43.4936 37.7278C43.9256 37.7278 44.2296 37.6758 44.4056 37.5718C44.5896 37.4678 44.6816 37.3238 44.6816 37.1398C44.6816 36.9878 44.6096 36.8758 44.4656 36.8038C44.3296 36.7238 44.1456 36.6638 43.9136 36.6238C43.6816 36.5838 43.4256 36.5438 43.1456 36.5038C42.8736 36.4638 42.5976 36.4118 42.3176 36.3478C42.0376 36.2758 41.7816 36.1718 41.5496 36.0358C41.3176 35.8998 41.1296 35.7158 40.9856 35.4838C40.8496 35.2518 40.7816 34.9518 40.7816 34.5838C40.7816 34.1758 40.8976 33.8158 41.1296 33.5038C41.3696 33.1918 41.7136 32.9478 42.1616 32.7718C42.6096 32.5878 43.1456 32.4958 43.7696 32.4958C44.2096 32.4958 44.6576 32.5438 45.1136 32.6398C45.307 32.6805 45.4867 32.7292 45.6528 32.7857C46.009 32.907 46.1325 33.3183 45.9729 33.659V33.659C45.7888 34.052 45.3071 34.1882 44.8895 34.07C44.8204 34.0504 44.7511 34.0337 44.6816 34.0198C44.3696 33.9478 44.0656 33.9118 43.7696 33.9118C43.3536 33.9118 43.0496 33.9678 42.8576 34.0798C42.6656 34.1918 42.5696 34.3358 42.5696 34.5118C42.5696 34.6718 42.6376 34.7918 42.7736 34.8718C42.9176 34.9518 43.1056 35.0158 43.3376 35.0638C43.5696 35.1118 43.8216 35.1558 44.0936 35.1958C44.3736 35.2278 44.6536 35.2798 44.9336 35.3518C45.2136 35.4238 45.4656 35.5278 45.6896 35.6638C45.9216 35.7918 46.1096 35.9718 46.2536 36.2038C46.3976 36.4278 46.4696 36.7238 46.4696 37.0918C46.4696 37.4918 46.3496 37.8478 46.1096 38.1598C45.8696 38.4638 45.5216 38.7038 45.0656 38.8798C44.6176 39.0558 44.0696 39.1438 43.4216 39.1438Z"
  />
</svg>
