<svg width="50" height="40" viewBox="0 0 50 40" fill="none" xmlns="http://www.w3.org/2000/svg">
<path d="M17.5609 16.6839H12.6444L12.346 19.2943H16.2556V21.9639H12.0409L11.7426 24.5743H16.2557V28.5491C16.2557 29.2699 16.8401 29.8543 17.5609 29.8543C18.2817 29.8543 18.866 29.2699 18.866 28.5491V17.9891C18.866 17.2683 18.2817 16.6839 17.5609 16.6839Z" fill="#CD6200"/>
<path d="M5.12719 19.2943H8.16622L8.46463 16.684H5.09658C5.02373 14.8093 4.84373 12.8398 4.55588 10.7785C3.80826 5.42519 2.60287 1.51074 2.55197 1.34676C2.33816 0.658346 1.60655 0.273795 0.918368 0.487488C0.229949 0.701298 -0.15472 1.43267 0.0590905 2.12109C0.106433 2.27367 4.75593 17.5004 1.13787 28.1287C0.905554 28.811 1.27041 29.5525 1.95278 29.7848C2.09219 29.8323 2.23398 29.8548 2.37352 29.8548C2.91682 29.8548 3.42418 29.5128 3.60892 28.9699C4.07273 27.6074 4.43082 26.1408 4.68308 24.5744H7.56276L7.86117 21.9641H4.99798C5.06953 21.1003 5.11212 20.2098 5.12719 19.2943Z" fill="#CD6200"/>
<path d="M49.0816 0.487318C48.393 0.273151 47.6618 0.658058 47.448 1.3466C47.3971 1.51057 46.1917 5.42502 45.4441 10.7784C45.1562 12.8396 44.9762 14.8092 44.9034 16.6838H41.5353L41.8337 19.2941H44.8728C44.8878 20.2097 44.9304 21.1001 45.002 21.9638H42.1388L42.4371 24.5741H45.3169C45.5691 26.1405 45.9272 27.607 46.391 28.9696C46.5759 29.5126 47.083 29.8545 47.6264 29.8545C47.7658 29.8545 47.9079 29.8321 48.0472 29.7845C48.7295 29.5522 49.0944 28.8107 48.8621 28.1284C45.2517 17.5231 49.8869 2.29546 49.9409 2.1208C50.1548 1.4325 49.77 0.701129 49.0816 0.487318Z" fill="#CD6200"/>
<path d="M33.7443 21.9639V19.2943H37.6539L37.3555 16.6839H32.4391C31.7183 16.6839 31.1339 17.2683 31.1339 17.9891V28.5491C31.1339 29.2699 31.7183 29.8543 32.4391 29.8543C33.1599 29.8543 33.7443 29.2699 33.7443 28.5491V24.5743H38.2572L37.9589 21.9639H33.7443Z" fill="#CD6200"/>
<path d="M39.9367 9.4879H40.9585C42.0728 9.4879 42.976 8.58484 42.976 7.47081C42.976 6.35655 42.0728 5.45326 40.9585 5.45326H9.0414C7.92714 5.45326 7.02408 6.35655 7.02408 7.47081C7.02408 8.58484 7.92714 9.4879 9.0414 9.4879H10.0632L7.89285 28.4783C7.81098 29.1945 8.32522 29.8413 9.0414 29.9232C9.75782 30.0058 10.4045 29.4908 10.4863 28.7747L12.6905 9.48778H37.3094L39.5136 28.7747C39.5897 29.4405 40.1542 29.9318 40.8087 29.9318C40.8582 29.9318 40.9082 29.929 40.9585 29.9232C41.6747 29.8415 42.189 29.1945 42.1071 28.4783L39.9367 9.4879Z" fill="#CD6200"/>
<path d="M4.79487 39.4759C4.3086 39.4759 3.9144 39.0817 3.9144 38.5954C3.9144 38.3532 4.0142 38.1217 4.19032 37.9553L7.1544 35.1559C7.4104 34.9239 7.5984 34.7159 7.7184 34.5319C7.8384 34.3479 7.9184 34.1799 7.9584 34.0279C8.0064 33.8759 8.0304 33.7359 8.0304 33.6079C8.0304 33.2719 7.9144 33.0159 7.6824 32.8399C7.4584 32.6559 7.1264 32.5639 6.6864 32.5639C6.3344 32.5639 6.0064 32.6319 5.7024 32.7679C5.64584 32.7939 5.59089 32.8227 5.53755 32.8542C5.14512 33.0862 4.64612 33.2105 4.26286 32.9637C3.86022 32.7043 3.7436 32.1539 4.10918 31.8446C4.33251 31.6555 4.58759 31.4913 4.8744 31.3519C5.4504 31.0719 6.1144 30.9319 6.8664 30.9319C7.4904 30.9319 8.0344 31.0359 8.4984 31.2439C8.9704 31.4439 9.3344 31.7279 9.5904 32.0959C9.8544 32.4639 9.9864 32.9039 9.9864 33.4159C9.9864 33.6879 9.9504 33.9599 9.8784 34.2319C9.8144 34.4959 9.6784 34.7759 9.4704 35.0719C9.2704 35.3679 8.9744 35.6999 8.5824 36.0679L6.15234 38.3569C6.02272 38.479 5.81239 38.4438 5.72957 38.2862C5.63541 38.107 5.76538 37.8919 5.96781 37.8919H9.4704C9.90781 37.8919 10.2624 38.2465 10.2624 38.6839C10.2624 39.1213 9.90781 39.4759 9.4704 39.4759H4.79487Z" fill="#CD6200"/>
<path d="M17.031 39.5719C16.479 39.5719 15.947 39.5079 15.435 39.3799C15.2005 39.3167 14.9886 39.2465 14.7992 39.1694C14.4591 39.0309 14.3486 38.6311 14.5033 38.298C14.6923 37.8908 15.1979 37.7418 15.6201 37.8946C15.7113 37.9276 15.8056 37.9587 15.903 37.9879C16.311 38.0999 16.711 38.1559 17.103 38.1559C17.535 38.1559 17.839 38.1039 18.015 37.9999C18.199 37.8959 18.291 37.7519 18.291 37.5679C18.291 37.4159 18.219 37.3039 18.075 37.2319C17.939 37.1519 17.755 37.0919 17.523 37.0519C17.291 37.0119 17.035 36.9719 16.755 36.9319C16.483 36.8919 16.207 36.8399 15.927 36.7759C15.647 36.7039 15.391 36.5999 15.159 36.4639C14.927 36.3279 14.739 36.1439 14.595 35.9119C14.459 35.6799 14.391 35.3799 14.391 35.0119C14.391 34.6039 14.507 34.2439 14.739 33.9319C14.979 33.6199 15.323 33.3759 15.771 33.1999C16.219 33.0159 16.755 32.9239 17.379 32.9239C17.819 32.9239 18.267 32.9719 18.723 33.0679C18.9164 33.1086 19.0961 33.1573 19.2622 33.2138C19.6183 33.3351 19.7419 33.7464 19.5822 34.0871C19.3981 34.4801 18.9165 34.6163 18.4989 34.4981C18.4298 34.4785 18.3605 34.4618 18.291 34.4479C17.979 34.3759 17.675 34.3399 17.379 34.3399C16.963 34.3399 16.659 34.3959 16.467 34.5079C16.275 34.6199 16.179 34.7639 16.179 34.9399C16.179 35.0999 16.247 35.2199 16.383 35.2999C16.527 35.3799 16.715 35.4439 16.947 35.4919C17.179 35.5399 17.431 35.5839 17.703 35.6239C17.983 35.6559 18.263 35.7079 18.543 35.7799C18.823 35.8519 19.075 35.9559 19.299 36.0919C19.531 36.2199 19.719 36.3999 19.863 36.6319C20.007 36.8559 20.079 37.1519 20.079 37.5199C20.079 37.9199 19.959 38.2759 19.719 38.5879C19.479 38.8919 19.131 39.1319 18.675 39.3079C18.227 39.4839 17.679 39.5719 17.031 39.5719Z" fill="#CD6200"/>
<path d="M24.438 39.5719C23.702 39.5719 23.054 39.4279 22.494 39.1399C21.942 38.8519 21.514 38.4599 21.21 37.9639C20.906 37.4599 20.754 36.8879 20.754 36.2479C20.754 35.5999 20.902 35.0279 21.198 34.5319C21.502 34.0279 21.914 33.6359 22.434 33.3559C22.954 33.0679 23.542 32.9239 24.198 32.9239C24.83 32.9239 25.398 33.0599 25.902 33.3319C26.414 33.5959 26.818 33.9799 27.114 34.4839C27.41 34.9799 27.558 35.5759 27.558 36.2719C27.558 36.3439 27.554 36.4279 27.546 36.5239C27.5329 36.667 27.4125 36.7759 27.2688 36.7759H22.824C22.5224 36.7759 22.278 36.5315 22.278 36.2299C22.278 35.9284 22.5224 35.6839 22.824 35.6839H25.9452C26.0823 35.6839 26.1224 35.8709 25.9974 35.9272C25.9132 35.9651 25.8176 35.9033 25.8098 35.8113C25.788 35.5567 25.7227 35.3302 25.614 35.1319C25.478 34.8839 25.29 34.6919 25.05 34.5559C24.81 34.4119 24.53 34.3399 24.21 34.3399C23.89 34.3399 23.606 34.4119 23.358 34.5559C23.118 34.6919 22.93 34.8879 22.794 35.1439C22.658 35.3919 22.59 35.6879 22.59 36.0319V36.3199C22.59 36.6719 22.666 36.9839 22.818 37.2559C22.978 37.5199 23.198 37.7239 23.478 37.8679C23.766 38.0039 24.102 38.0719 24.486 38.0719C24.83 38.0719 25.13 38.0199 25.386 37.9159C25.4119 37.9057 25.4377 37.8949 25.4632 37.8837C25.8552 37.711 26.3447 37.7068 26.6351 38.0217C26.9004 38.3094 26.9101 38.7613 26.5882 38.9838C26.4056 39.11 26.2048 39.218 25.986 39.3079C25.538 39.4839 25.022 39.5719 24.438 39.5719Z" fill="#CD6200"/>
<path d="M33.4645 39.4759C32.9807 39.4759 32.5885 39.0837 32.5885 38.5999V38.3664C32.5885 38.2671 32.5681 38.1689 32.5285 38.0779C32.4889 37.9869 32.4685 37.8887 32.4685 37.7894V35.6839C32.4685 35.2839 32.3445 34.9719 32.0965 34.7479C31.8565 34.5239 31.4845 34.4119 30.9805 34.4119C30.6365 34.4119 30.2965 34.4679 29.9605 34.5799C29.931 34.5893 29.902 34.5989 29.8733 34.6089C29.4539 34.7549 28.9314 34.6438 28.7284 34.2488C28.5679 33.9364 28.6604 33.5475 28.9783 33.398C29.2046 33.2916 29.452 33.2015 29.7205 33.1279C30.2165 32.9919 30.7205 32.9239 31.2325 32.9239C32.2165 32.9239 32.9805 33.1559 33.5245 33.6199C34.0685 34.0839 34.3405 34.8079 34.3405 35.7919V38.5999C34.3405 39.0837 33.9483 39.4759 33.4645 39.4759ZM30.6205 39.5719C30.1165 39.5719 29.6845 39.4879 29.3245 39.3199C28.9645 39.1439 28.6885 38.9079 28.4965 38.6119C28.3045 38.3159 28.2085 37.9839 28.2085 37.6159C28.2085 37.2319 28.3005 36.8959 28.4845 36.6079C28.6765 36.3199 28.9765 36.0959 29.3845 35.9359C29.7925 35.7679 30.3245 35.6839 30.9805 35.6839H32.1505C32.452 35.6839 32.6965 35.9284 32.6965 36.2299C32.6965 36.5315 32.452 36.7759 32.1505 36.7759H31.1845C30.7445 36.7759 30.4405 36.8479 30.2725 36.9919C30.1125 37.1359 30.0325 37.3159 30.0325 37.5319C30.0325 37.7719 30.1245 37.9639 30.3085 38.1079C30.5005 38.2439 30.7605 38.3119 31.0885 38.3119C31.4005 38.3119 31.6805 38.2399 31.9285 38.0959C31.9441 38.0863 31.9595 38.0765 31.9746 38.0663C32.203 37.9132 32.6389 37.9471 32.7258 38.2079C32.7457 38.2677 32.7466 38.3325 32.7242 38.3913C32.5829 38.7625 32.3456 39.048 32.0125 39.2479C31.6525 39.4639 31.1885 39.5719 30.6205 39.5719Z" fill="#CD6200"/>
<path d="M38.6747 39.5719C37.9147 39.5719 37.3227 39.3799 36.8987 38.9959C36.4747 38.6039 36.2627 38.0239 36.2627 37.2559V32.5279C36.2627 32.011 36.6818 31.5919 37.1987 31.5919C37.7157 31.5919 38.1347 32.011 38.1347 32.5279V37.2319C38.1347 37.5039 38.2067 37.7159 38.3507 37.8679C38.4947 38.0119 38.6907 38.0839 38.9387 38.0839C39.3416 38.0839 39.8393 38.2225 39.983 38.5989L40.0143 38.6808C40.1228 38.9651 40.0263 39.2954 39.7408 39.401C39.6652 39.4289 39.5858 39.4539 39.5027 39.4759C39.2387 39.5399 38.9627 39.5719 38.6747 39.5719ZM35.9867 34.6039C35.5891 34.6039 35.2667 34.2816 35.2667 33.8839C35.2667 33.4863 35.5891 33.1639 35.9867 33.1639H39.0227C39.4204 33.1639 39.7427 33.4863 39.7427 33.8839C39.7427 34.2816 39.4204 34.6039 39.0227 34.6039H35.9867Z" fill="#CD6200"/>
<path d="M43.4216 39.5719C42.8696 39.5719 42.3376 39.5079 41.8256 39.3799C41.5912 39.3167 41.3792 39.2465 41.1898 39.1694C40.8497 39.0309 40.7393 38.6311 40.8939 38.298C41.0829 37.8908 41.5886 37.7418 42.0107 37.8946C42.1019 37.9276 42.1962 37.9587 42.2936 37.9879C42.7016 38.0999 43.1016 38.1559 43.4936 38.1559C43.9256 38.1559 44.2296 38.1039 44.4056 37.9999C44.5896 37.8959 44.6816 37.7519 44.6816 37.5679C44.6816 37.4159 44.6096 37.3039 44.4656 37.2319C44.3296 37.1519 44.1456 37.0919 43.9136 37.0519C43.6816 37.0119 43.4256 36.9719 43.1456 36.9319C42.8736 36.8919 42.5976 36.8399 42.3176 36.7759C42.0376 36.7039 41.7816 36.5999 41.5496 36.4639C41.3176 36.3279 41.1296 36.1439 40.9856 35.9119C40.8496 35.6799 40.7816 35.3799 40.7816 35.0119C40.7816 34.6039 40.8976 34.2439 41.1296 33.9319C41.3696 33.6199 41.7136 33.3759 42.1616 33.1999C42.6096 33.0159 43.1456 32.9239 43.7696 32.9239C44.2096 32.9239 44.6576 32.9719 45.1136 33.0679C45.307 33.1086 45.4867 33.1573 45.6528 33.2138C46.009 33.3351 46.1325 33.7464 45.9729 34.0871C45.7888 34.4801 45.3071 34.6163 44.8895 34.4981C44.8204 34.4785 44.7511 34.4618 44.6816 34.4479C44.3696 34.3759 44.0656 34.3399 43.7696 34.3399C43.3536 34.3399 43.0496 34.3959 42.8576 34.5079C42.6656 34.6199 42.5696 34.7639 42.5696 34.9399C42.5696 35.0999 42.6376 35.2199 42.7736 35.2999C42.9176 35.3799 43.1056 35.4439 43.3376 35.4919C43.5696 35.5399 43.8216 35.5839 44.0936 35.6239C44.3736 35.6559 44.6536 35.7079 44.9336 35.7799C45.2136 35.8519 45.4656 35.9559 45.6896 36.0919C45.9216 36.2199 46.1096 36.3999 46.2536 36.6319C46.3976 36.8559 46.4696 37.1519 46.4696 37.5199C46.4696 37.9199 46.3496 38.2759 46.1096 38.5879C45.8696 38.8919 45.5216 39.1319 45.0656 39.3079C44.6176 39.4839 44.0696 39.5719 43.4216 39.5719Z" fill="#CD6200"/>
</svg>
