<svg width="50" height="42" viewBox="0 0 50 42" fill="none" xmlns="http://www.w3.org/2000/svg">
<path d="M17.5608 16.2558H12.6444L12.346 18.8662H16.2555V21.5358H12.0409L11.7426 24.1462H16.2557V28.121C16.2557 28.8418 16.84 29.4262 17.5608 29.4262C18.2816 29.4262 18.866 28.8418 18.866 28.121V17.561C18.866 16.8402 18.2816 16.2558 17.5608 16.2558Z" fill="#CD6200"/>
<path d="M5.12719 18.8662H8.16622L8.46463 16.2559H5.09658C5.02373 14.3812 4.84373 12.4117 4.55588 10.3504C3.80826 4.99711 2.60287 1.08266 2.55197 0.91868C2.33816 0.230261 1.60655 -0.154289 0.918368 0.0594027C0.229949 0.273214 -0.15472 1.00458 0.0590905 1.693C0.106433 1.84559 4.75593 17.0723 1.13787 27.7006C0.905554 28.3829 1.27041 29.1244 1.95278 29.3567C2.09219 29.4042 2.23398 29.4267 2.37352 29.4267C2.91682 29.4267 3.42418 29.0848 3.60892 28.5418C4.07273 27.1793 4.43082 25.7127 4.68308 24.1464H7.56276L7.86117 21.536H4.99798C5.06953 20.6722 5.11212 19.7817 5.12719 18.8662Z" fill="#CD6200"/>
<path d="M49.0816 0.0592328C48.3931 -0.154934 47.6618 0.229973 47.448 0.91851C47.3971 1.08249 46.1917 4.99693 45.4441 10.3503C45.1562 12.4115 44.9762 14.3811 44.9034 16.2557H41.5353L41.8338 18.866H44.8728C44.8879 19.7816 44.9304 20.6721 45.002 21.5357H42.1388L42.4371 24.1461H45.3169C45.5692 25.7124 45.9272 27.1789 46.3911 28.5415C46.5759 29.0845 47.083 29.4264 47.6265 29.4264C47.7659 29.4264 47.9079 29.404 48.0472 29.3564C48.7296 29.1241 49.0944 28.3827 48.8621 27.7003C45.2518 17.0951 49.8869 1.86737 49.9409 1.69271C50.1548 1.00441 49.77 0.273044 49.0816 0.0592328Z" fill="#CD6200"/>
<path d="M33.7443 21.5358V18.8662H37.6538L37.3554 16.2558H32.4391C31.7183 16.2558 31.1339 16.8402 31.1339 17.561V28.121C31.1339 28.8418 31.7183 29.4262 32.4391 29.4262C33.1599 29.4262 33.7443 28.8418 33.7443 28.121V24.1462H38.2572L37.9589 21.5358H33.7443Z" fill="#CD6200"/>
<path d="M39.9367 9.05981H40.9586C42.0728 9.05981 42.976 8.15675 42.976 7.04273C42.976 5.92847 42.0728 5.02517 40.9586 5.02517H9.04143C7.92717 5.02517 7.02411 5.92847 7.02411 7.04273C7.02411 8.15675 7.92717 9.05981 9.04143 9.05981H10.0633L7.89288 28.0502C7.81101 28.7664 8.32525 29.4133 9.04143 29.4951C9.75785 29.5777 10.4045 29.0628 10.4864 28.3466L12.6906 9.05969H37.3094L39.5136 28.3466C39.5897 29.0125 40.1542 29.5037 40.8087 29.5037C40.8582 29.5037 40.9083 29.5009 40.9586 29.4951C41.6748 29.4134 42.189 28.7664 42.1071 28.0502L39.9367 9.05981Z" fill="#CD6200"/>
<path d="M4.09551 37.1398C3.55274 37.1398 3.11273 36.6998 3.11273 36.1571C3.11273 35.9459 3.18076 35.7403 3.30674 35.5708L6.82474 30.8375C6.98076 30.6276 7.22691 30.5038 7.48847 30.5038C8.1644 30.5038 8.55484 31.2707 8.15721 31.8173L5.28964 35.7591C5.2579 35.8027 5.20219 35.8218 5.15038 35.8067C5.00825 35.7653 5.03812 35.5558 5.18615 35.5558H10.1087C10.5461 35.5558 10.9007 35.9104 10.9007 36.3478C10.9007 36.7852 10.5461 37.1398 10.1087 37.1398H4.09551ZM8.58473 38.9038C8.06117 38.9038 7.63673 38.4794 7.63673 37.9558V37.1398L7.69673 35.5558V34.9018C7.69673 34.3948 8.10774 33.9838 8.61473 33.9838C9.12173 33.9838 9.53273 34.3948 9.53273 34.9018V37.9558C9.53273 38.4794 9.1083 38.9038 8.58473 38.9038Z" fill="#CD6200"/>
<path d="M17.4486 38.9998C16.8966 38.9998 16.3646 38.9358 15.8526 38.8078C15.6182 38.7446 15.4062 38.6744 15.2168 38.5973C14.8768 38.4589 14.7663 38.059 14.9209 37.726C15.11 37.3188 15.6156 37.1697 16.0377 37.3225C16.129 37.3555 16.2232 37.3866 16.3206 37.4158C16.7286 37.5278 17.1286 37.5838 17.5206 37.5838C17.9526 37.5838 18.2566 37.5318 18.4326 37.4278C18.6166 37.3238 18.7086 37.1798 18.7086 36.9958C18.7086 36.8438 18.6366 36.7318 18.4926 36.6598C18.3566 36.5798 18.1726 36.5198 17.9406 36.4798C17.7086 36.4398 17.4526 36.3998 17.1726 36.3598C16.9006 36.3198 16.6246 36.2678 16.3446 36.2038C16.0646 36.1318 15.8086 36.0278 15.5766 35.8918C15.3446 35.7558 15.1566 35.5718 15.0126 35.3398C14.8766 35.1078 14.8086 34.8078 14.8086 34.4398C14.8086 34.0318 14.9246 33.6718 15.1566 33.3598C15.3966 33.0478 15.7406 32.8038 16.1886 32.6278C16.6366 32.4438 17.1726 32.3518 17.7966 32.3518C18.2366 32.3518 18.6846 32.3998 19.1406 32.4958C19.334 32.5365 19.5137 32.5852 19.6798 32.6417C20.036 32.763 20.1595 33.1743 19.9999 33.515C19.8158 33.908 19.3341 34.0442 18.9166 33.926C18.8474 33.9065 18.7781 33.8897 18.7086 33.8758C18.3966 33.8038 18.0926 33.7678 17.7966 33.7678C17.3806 33.7678 17.0766 33.8238 16.8846 33.9358C16.6926 34.0478 16.5966 34.1918 16.5966 34.3678C16.5966 34.5278 16.6646 34.6478 16.8006 34.7278C16.9446 34.8078 17.1326 34.8718 17.3646 34.9198C17.5966 34.9678 17.8486 35.0118 18.1206 35.0518C18.4006 35.0838 18.6806 35.1358 18.9606 35.2078C19.2406 35.2798 19.4926 35.3838 19.7166 35.5198C19.9486 35.6478 20.1366 35.8278 20.2806 36.0598C20.4246 36.2838 20.4966 36.5798 20.4966 36.9478C20.4966 37.3478 20.3766 37.7038 20.1366 38.0158C19.8966 38.3198 19.5486 38.5598 19.0926 38.7358C18.6446 38.9118 18.0966 38.9998 17.4486 38.9998Z" fill="#CD6200"/>
<path d="M24.8556 38.9998C24.1196 38.9998 23.4716 38.8558 22.9116 38.5678C22.3596 38.2798 21.9316 37.8878 21.6276 37.3918C21.3236 36.8878 21.1716 36.3158 21.1716 35.6758C21.1716 35.0278 21.3196 34.4558 21.6156 33.9598C21.9196 33.4558 22.3316 33.0638 22.8516 32.7838C23.3716 32.4958 23.9596 32.3518 24.6156 32.3518C25.2476 32.3518 25.8156 32.4878 26.3196 32.7598C26.8316 33.0238 27.2356 33.4078 27.5316 33.9118C27.8276 34.4078 27.9756 35.0038 27.9756 35.6998C27.9756 35.7718 27.9716 35.8558 27.9636 35.9518C27.9506 36.0949 27.8302 36.2038 27.6865 36.2038H23.2416C22.9401 36.2038 22.6956 35.9594 22.6956 35.6578C22.6956 35.3563 22.9401 35.1118 23.2416 35.1118H26.3628C26.4999 35.1118 26.5401 35.2988 26.415 35.3551C26.3309 35.393 26.2353 35.3312 26.2274 35.2393C26.2056 34.9846 26.1404 34.7582 26.0316 34.5598C25.8956 34.3118 25.7076 34.1198 25.4676 33.9838C25.2276 33.8398 24.9476 33.7678 24.6276 33.7678C24.3076 33.7678 24.0236 33.8398 23.7756 33.9838C23.5356 34.1198 23.3476 34.3158 23.2116 34.5718C23.0756 34.8198 23.0076 35.1158 23.0076 35.4598V35.7478C23.0076 36.0998 23.0836 36.4118 23.2356 36.6838C23.3956 36.9478 23.6156 37.1518 23.8956 37.2958C24.1836 37.4318 24.5196 37.4998 24.9036 37.4998C25.2476 37.4998 25.5476 37.4478 25.8036 37.3438C25.8296 37.3336 25.8554 37.3228 25.8809 37.3116C26.2729 37.1389 26.7624 37.1348 27.0528 37.4496C27.3181 37.7373 27.3278 38.1892 27.0058 38.4117C26.8232 38.5379 26.6225 38.6459 26.4036 38.7358C25.9556 38.9118 25.4396 38.9998 24.8556 38.9998Z" fill="#CD6200"/>
<path d="M33.8821 38.9038C33.3983 38.9038 33.0061 38.5116 33.0061 38.0278V37.7943C33.0061 37.695 32.9857 37.5969 32.9461 37.5058C32.9066 37.4148 32.8861 37.3166 32.8861 37.2173V35.1118C32.8861 34.7118 32.7621 34.3998 32.5141 34.1758C32.2741 33.9518 31.9021 33.8398 31.3981 33.8398C31.0541 33.8398 30.7141 33.8958 30.3781 34.0078C30.3487 34.0172 30.3196 34.0268 30.2909 34.0368C29.8715 34.1828 29.349 34.0717 29.1461 33.6767C28.9856 33.3643 29.0781 32.9754 29.396 32.8259C29.6223 32.7195 29.8696 32.6294 30.1381 32.5558C30.6341 32.4198 31.1381 32.3518 31.6501 32.3518C32.6341 32.3518 33.3981 32.5838 33.9421 33.0478C34.4861 33.5118 34.7581 34.2358 34.7581 35.2198V38.0278C34.7581 38.5116 34.3659 38.9038 33.8821 38.9038ZM31.0381 38.9998C30.5341 38.9998 30.1021 38.9158 29.7421 38.7478C29.3821 38.5718 29.1061 38.3358 28.9141 38.0398C28.7221 37.7438 28.6261 37.4118 28.6261 37.0438C28.6261 36.6598 28.7181 36.3238 28.9021 36.0358C29.0941 35.7478 29.3941 35.5238 29.8021 35.3638C30.2101 35.1958 30.7421 35.1118 31.3981 35.1118H32.5681C32.8697 35.1118 33.1141 35.3563 33.1141 35.6578C33.1141 35.9594 32.8697 36.2038 32.5681 36.2038H31.6021C31.1621 36.2038 30.8581 36.2758 30.6901 36.4198C30.5301 36.5638 30.4501 36.7438 30.4501 36.9598C30.4501 37.1998 30.5421 37.3918 30.7261 37.5358C30.9181 37.6718 31.1781 37.7398 31.5061 37.7398C31.8181 37.7398 32.0981 37.6678 32.3461 37.5238C32.3618 37.5142 32.3772 37.5044 32.3923 37.4942C32.6206 37.3411 33.0565 37.375 33.1435 37.6359C33.1634 37.6956 33.1642 37.7604 33.1418 37.8193C33.0005 38.1904 32.7633 38.4759 32.4301 38.6758C32.0701 38.8918 31.6061 38.9998 31.0381 38.9998Z" fill="#CD6200"/>
<path d="M39.0924 38.9998C38.3324 38.9998 37.7404 38.8078 37.3164 38.4238C36.8924 38.0318 36.6804 37.4518 36.6804 36.6838V31.9558C36.6804 31.4389 37.0994 31.0198 37.6164 31.0198C38.1333 31.0198 38.5524 31.4389 38.5524 31.9558V36.6598C38.5524 36.9318 38.6244 37.1438 38.7684 37.2958C38.9124 37.4398 39.1084 37.5118 39.3564 37.5118C39.7592 37.5118 40.257 37.6504 40.4006 38.0268L40.4319 38.1087C40.5405 38.393 40.4439 38.7233 40.1585 38.8289C40.0828 38.8569 40.0035 38.8818 39.9204 38.9038C39.6564 38.9678 39.3804 38.9998 39.0924 38.9998ZM36.4044 34.0318C36.0067 34.0318 35.6844 33.7095 35.6844 33.3118C35.6844 32.9142 36.0067 32.5918 36.4044 32.5918H39.4404C39.838 32.5918 40.1604 32.9142 40.1604 33.3118C40.1604 33.7095 39.838 34.0318 39.4404 34.0318H36.4044Z" fill="#CD6200"/>
<path d="M43.8392 38.9998C43.2872 38.9998 42.7552 38.9358 42.2432 38.8078C42.0088 38.7446 41.7969 38.6744 41.6074 38.5973C41.2674 38.4589 41.1569 38.059 41.3115 37.726C41.5006 37.3188 42.0062 37.1697 42.4284 37.3225C42.5196 37.3555 42.6139 37.3866 42.7112 37.4158C43.1192 37.5278 43.5192 37.5838 43.9112 37.5838C44.3432 37.5838 44.6472 37.5318 44.8232 37.4278C45.0072 37.3238 45.0992 37.1798 45.0992 36.9958C45.0992 36.8438 45.0272 36.7318 44.8832 36.6598C44.7472 36.5798 44.5632 36.5198 44.3312 36.4798C44.0992 36.4398 43.8432 36.3998 43.5632 36.3598C43.2912 36.3198 43.0152 36.2678 42.7352 36.2038C42.4552 36.1318 42.1992 36.0278 41.9672 35.8918C41.7352 35.7558 41.5472 35.5718 41.4032 35.3398C41.2672 35.1078 41.1992 34.8078 41.1992 34.4398C41.1992 34.0318 41.3152 33.6718 41.5472 33.3598C41.7872 33.0478 42.1312 32.8038 42.5792 32.6278C43.0272 32.4438 43.5632 32.3518 44.1872 32.3518C44.6272 32.3518 45.0752 32.3998 45.5312 32.4958C45.7246 32.5365 45.9044 32.5852 46.0704 32.6417C46.4266 32.763 46.5501 33.1743 46.3905 33.515C46.2064 33.908 45.7248 34.0442 45.3072 33.926C45.2381 33.9065 45.1687 33.8897 45.0992 33.8758C44.7872 33.8038 44.4832 33.7678 44.1872 33.7678C43.7712 33.7678 43.4672 33.8238 43.2752 33.9358C43.0832 34.0478 42.9872 34.1918 42.9872 34.3678C42.9872 34.5278 43.0552 34.6478 43.1912 34.7278C43.3352 34.8078 43.5232 34.8718 43.7552 34.9198C43.9872 34.9678 44.2392 35.0118 44.5112 35.0518C44.7912 35.0838 45.0712 35.1358 45.3512 35.2078C45.6312 35.2798 45.8832 35.3838 46.1072 35.5198C46.3392 35.6478 46.5272 35.8278 46.6712 36.0598C46.8152 36.2838 46.8872 36.5798 46.8872 36.9478C46.8872 37.3478 46.7672 37.7038 46.5272 38.0158C46.2872 38.3198 45.9392 38.5598 45.4832 38.7358C45.0352 38.9118 44.4872 38.9998 43.8392 38.9998Z" fill="#CD6200"/>
</svg>
