<svg width="50" height="40" viewBox="0 0 50 40" fill="none" xmlns="http://www.w3.org/2000/svg">
<path d="M17.5609 16.2558H12.6444L12.346 18.8662H16.2556V21.5358H12.0409L11.7426 24.1462H16.2557V28.121C16.2557 28.8418 16.84 29.4262 17.5609 29.4262C18.2817 29.4262 18.866 28.8418 18.866 28.121V17.561C18.866 16.8402 18.2817 16.2558 17.5609 16.2558Z" fill="black"/>
<path d="M5.12719 18.8662H8.16622L8.46463 16.2559H5.09658C5.02373 14.3812 4.84373 12.4117 4.55588 10.3505C3.80826 4.99712 2.60287 1.08267 2.55197 0.91869C2.33816 0.230271 1.60655 -0.154279 0.918368 0.0594127C0.229949 0.273224 -0.15472 1.00459 0.0590905 1.69301C0.106433 1.8456 4.75593 17.0723 1.13787 27.7006C0.905554 28.3829 1.27041 29.1244 1.95278 29.3567C2.09219 29.4042 2.23398 29.4267 2.37352 29.4267C2.91682 29.4267 3.42418 29.0848 3.60892 28.5418C4.07273 27.1793 4.43082 25.7127 4.68308 24.1464H7.56276L7.86117 21.536H4.99798C5.06953 20.6722 5.11212 19.7817 5.12719 18.8662Z" fill="black"/>
<path d="M49.0816 0.0592328C48.393 -0.154934 47.6618 0.229973 47.448 0.91851C47.3971 1.08249 46.1917 4.99694 45.4441 10.3503C45.1562 12.4115 44.9762 14.3811 44.9034 16.2557H41.5353L41.8337 18.866H44.8728C44.8878 19.7816 44.9304 20.6721 45.002 21.5357H42.1388L42.4371 24.1461H45.3169C45.5691 25.7124 45.9272 27.1789 46.391 28.5415C46.5759 29.0845 47.083 29.4264 47.6264 29.4264C47.7659 29.4264 47.9079 29.404 48.0472 29.3564C48.7295 29.1241 49.0944 28.3827 48.8621 27.7003C45.2517 17.0951 49.8869 1.86737 49.9409 1.69271C50.1548 1.00441 49.77 0.273044 49.0816 0.0592328Z" fill="black"/>
<path d="M33.7443 21.5358V18.8662H37.6539L37.3555 16.2558H32.4391C31.7183 16.2558 31.1339 16.8402 31.1339 17.561V28.121C31.1339 28.8418 31.7183 29.4262 32.4391 29.4262C33.1599 29.4262 33.7443 28.8418 33.7443 28.121V24.1462H38.2572L37.9589 21.5358H33.7443Z" fill="black"/>
<path d="M39.9367 9.05982H40.9585C42.0728 9.05982 42.976 8.15676 42.976 7.04274C42.976 5.92847 42.0728 5.02518 40.9585 5.02518H9.0414C7.92714 5.02518 7.02408 5.92847 7.02408 7.04274C7.02408 8.15676 7.92714 9.05982 9.0414 9.05982H10.0632L7.89285 28.0502C7.81098 28.7664 8.32522 29.4133 9.0414 29.4951C9.75782 29.5777 10.4045 29.0628 10.4863 28.3466L12.6905 9.0597H37.3094L39.5136 28.3466C39.5897 29.0125 40.1542 29.5037 40.8087 29.5037C40.8582 29.5037 40.9082 29.5009 40.9585 29.4951C41.6747 29.4134 42.189 28.7664 42.1071 28.0502L39.9367 9.05982Z" fill="black"/>
<path d="M6.84053 39.1918C6.13653 39.1918 5.52053 39.0878 4.99253 38.8798C4.46453 38.6638 4.05253 38.3638 3.75653 37.9798C3.46053 37.5878 3.31253 37.1318 3.31253 36.6118C3.31253 36.0918 3.45653 35.6518 3.74453 35.2918C4.04053 34.9238 4.45253 34.6478 4.98053 34.4638C5.50853 34.2718 6.12853 34.1758 6.84053 34.1758C7.56053 34.1758 8.18453 34.2718 8.71253 34.4638C9.24853 34.6478 9.66053 34.9238 9.94853 35.2918C10.2445 35.6518 10.3925 36.0918 10.3925 36.6118C10.3925 37.1318 10.2445 37.5878 9.94853 37.9798C9.65253 38.3638 9.23653 38.6638 8.70053 38.8798C8.17253 39.0878 7.55253 39.1918 6.84053 39.1918ZM6.84053 37.7638C7.32853 37.7638 7.71253 37.6558 7.99253 37.4398C8.28053 37.2238 8.42453 36.9278 8.42453 36.5518C8.42453 36.1758 8.28053 35.8838 7.99253 35.6758C7.71253 35.4598 7.32853 35.3518 6.84053 35.3518C6.36053 35.3518 5.98053 35.4598 5.70053 35.6758C5.42053 35.8838 5.28053 36.1758 5.28053 36.5518C5.28053 36.9278 5.42053 37.2238 5.70053 37.4398C5.98053 37.6558 6.36053 37.7638 6.84053 37.7638ZM6.84053 35.1598C6.19253 35.1598 5.62453 35.0718 5.13653 34.8958C4.65653 34.7198 4.28053 34.4638 4.00853 34.1278C3.74453 33.7838 3.61253 33.3758 3.61253 32.9038C3.61253 32.4078 3.74853 31.9838 4.02053 31.6318C4.29253 31.2718 4.67253 30.9958 5.16053 30.8038C5.64853 30.6038 6.20853 30.5038 6.84053 30.5038C7.48853 30.5038 8.05253 30.6038 8.53253 30.8038C9.02053 30.9958 9.40053 31.2718 9.67253 31.6318C9.95253 31.9838 10.0925 32.4078 10.0925 32.9038C10.0925 33.3758 9.95653 33.7838 9.68453 34.1278C9.42053 34.4638 9.04453 34.7198 8.55653 34.8958C8.06853 35.0718 7.49653 35.1598 6.84053 35.1598ZM6.84053 34.0198C7.24853 34.0198 7.56853 33.9278 7.80053 33.7438C8.04053 33.5598 8.16053 33.3078 8.16053 32.9878C8.16053 32.6518 8.03653 32.3918 7.78853 32.2078C7.54853 32.0238 7.23253 31.9318 6.84053 31.9318C6.45653 31.9318 6.14453 32.0238 5.90453 32.2078C5.66453 32.3918 5.54453 32.6518 5.54453 32.9878C5.54453 33.3078 5.66053 33.5598 5.89253 33.7438C6.12453 33.9278 6.44053 34.0198 6.84053 34.0198Z" fill="black"/>
<path d="M17.2488 39.1438C16.6968 39.1438 16.1648 39.0798 15.6528 38.9518C15.4184 38.8886 15.2065 38.8184 15.017 38.7413C14.677 38.6028 14.5665 38.203 14.7211 37.87V37.87C14.9102 37.4627 15.4158 37.3137 15.838 37.4665C15.9292 37.4995 16.0235 37.5306 16.1208 37.5598C16.5288 37.6718 16.9288 37.7278 17.3208 37.7278C17.7528 37.7278 18.0568 37.6758 18.2328 37.5718C18.4168 37.4678 18.5088 37.3238 18.5088 37.1398C18.5088 36.9878 18.4368 36.8758 18.2928 36.8038C18.1568 36.7238 17.9728 36.6638 17.7408 36.6238C17.5088 36.5838 17.2528 36.5438 16.9728 36.5038C16.7008 36.4638 16.4248 36.4118 16.1448 36.3478C15.8648 36.2758 15.6088 36.1718 15.3768 36.0358C15.1448 35.8998 14.9568 35.7158 14.8128 35.4838C14.6768 35.2518 14.6088 34.9518 14.6088 34.5838C14.6088 34.1758 14.7248 33.8158 14.9568 33.5038C15.1968 33.1918 15.5408 32.9478 15.9888 32.7718C16.4368 32.5878 16.9728 32.4958 17.5968 32.4958C18.0368 32.4958 18.4848 32.5438 18.9408 32.6398C19.1342 32.6805 19.314 32.7292 19.48 32.7857C19.8362 32.907 19.9598 33.3183 19.8001 33.659V33.659C19.616 34.052 19.1344 34.1882 18.7168 34.07C18.6477 34.0504 18.5783 34.0337 18.5088 34.0198C18.1968 33.9478 17.8928 33.9118 17.5968 33.9118C17.1808 33.9118 16.8768 33.9678 16.6848 34.0798C16.4928 34.1918 16.3968 34.3358 16.3968 34.5118C16.3968 34.6718 16.4648 34.7918 16.6008 34.8718C16.7448 34.9518 16.9328 35.0158 17.1648 35.0638C17.3968 35.1118 17.6488 35.1558 17.9208 35.1958C18.2008 35.2278 18.4808 35.2798 18.7608 35.3518C19.0408 35.4238 19.2928 35.5278 19.5168 35.6638C19.7488 35.7918 19.9368 35.9718 20.0808 36.2038C20.2248 36.4278 20.2968 36.7238 20.2968 37.0918C20.2968 37.4918 20.1768 37.8478 19.9368 38.1598C19.6968 38.4638 19.3488 38.7038 18.8928 38.8798C18.4448 39.0558 17.8968 39.1438 17.2488 39.1438Z" fill="black"/>
<path d="M24.6558 39.1438C23.9198 39.1438 23.2718 38.9998 22.7118 38.7118C22.1598 38.4238 21.7318 38.0318 21.4278 37.5358C21.1238 37.0318 20.9718 36.4598 20.9718 35.8198C20.9718 35.1718 21.1198 34.5998 21.4158 34.1038C21.7198 33.5998 22.1318 33.2078 22.6518 32.9278C23.1718 32.6398 23.7598 32.4958 24.4158 32.4958C25.0478 32.4958 25.6158 32.6318 26.1198 32.9038C26.6318 33.1678 27.0358 33.5518 27.3318 34.0558C27.6278 34.5518 27.7758 35.1478 27.7758 35.8438C27.7758 35.9158 27.7718 35.9998 27.7638 36.0958V36.0958C27.7508 36.2389 27.6304 36.3478 27.4867 36.3478H23.0418C22.7403 36.3478 22.4958 36.1034 22.4958 35.8018V35.8018C22.4958 35.5003 22.7403 35.2558 23.0418 35.2558H26.1631C26.3002 35.2558 26.3403 35.4428 26.2153 35.4991V35.4991C26.1311 35.537 26.0355 35.4752 26.0277 35.3832C26.0059 35.1286 25.9406 34.9021 25.8318 34.7038C25.6958 34.4558 25.5078 34.2638 25.2678 34.1278C25.0278 33.9838 24.7478 33.9118 24.4278 33.9118C24.1078 33.9118 23.8238 33.9838 23.5758 34.1278C23.3358 34.2638 23.1478 34.4598 23.0118 34.7158C22.8758 34.9638 22.8078 35.2598 22.8078 35.6038V35.8918C22.8078 36.2438 22.8838 36.5558 23.0358 36.8278C23.1958 37.0918 23.4158 37.2958 23.6958 37.4398C23.9838 37.5758 24.3198 37.6438 24.7038 37.6438C25.0478 37.6438 25.3478 37.5918 25.6038 37.4878C25.6298 37.4776 25.6556 37.4668 25.6811 37.4556C26.0731 37.2829 26.5626 37.2787 26.853 37.5936V37.5936C27.1183 37.8813 27.128 38.3332 26.8061 38.5557C26.6235 38.6819 26.4227 38.7899 26.2038 38.8798C25.7558 39.0558 25.2398 39.1438 24.6558 39.1438Z" fill="black"/>
<path d="M33.6824 39.0478C33.1986 39.0478 32.8064 38.6556 32.8064 38.1718V37.9383C32.8064 37.839 32.786 37.7408 32.7464 37.6498V37.6498C32.7068 37.5588 32.6864 37.4606 32.6864 37.3613V35.2558C32.6864 34.8558 32.5624 34.5438 32.3144 34.3198C32.0744 34.0958 31.7024 33.9838 31.1984 33.9838C30.8544 33.9838 30.5144 34.0398 30.1784 34.1518C30.1489 34.1612 30.1199 34.1708 30.0912 34.1808C29.6718 34.3268 29.1493 34.2157 28.9463 33.8207V33.8207C28.7858 33.5083 28.8783 33.1194 29.1962 32.9699C29.4225 32.8635 29.6699 32.7734 29.9384 32.6998C30.4344 32.5638 30.9384 32.4958 31.4504 32.4958C32.4344 32.4958 33.1984 32.7278 33.7424 33.1918C34.2864 33.6558 34.5584 34.3798 34.5584 35.3638V38.1718C34.5584 38.6556 34.1662 39.0478 33.6824 39.0478V39.0478ZM30.8384 39.1438C30.3344 39.1438 29.9024 39.0598 29.5424 38.8918C29.1824 38.7158 28.9064 38.4798 28.7144 38.1838C28.5224 37.8878 28.4264 37.5558 28.4264 37.1878C28.4264 36.8038 28.5184 36.4678 28.7024 36.1798C28.8944 35.8918 29.1944 35.6678 29.6024 35.5078C30.0104 35.3398 30.5424 35.2558 31.1984 35.2558H32.3684C32.6699 35.2558 32.9144 35.5003 32.9144 35.8018V35.8018C32.9144 36.1034 32.6699 36.3478 32.3684 36.3478H31.4024C30.9624 36.3478 30.6584 36.4198 30.4904 36.5638C30.3304 36.7078 30.2504 36.8878 30.2504 37.1038C30.2504 37.3438 30.3424 37.5358 30.5264 37.6798C30.7184 37.8158 30.9784 37.8838 31.3064 37.8838C31.6184 37.8838 31.8984 37.8118 32.1464 37.6678C32.162 37.6582 32.1774 37.6484 32.1925 37.6382C32.4209 37.4851 32.8568 37.519 32.9437 37.7798V37.7798C32.9636 37.8396 32.9645 37.9044 32.9421 37.9633C32.8007 38.3344 32.5635 38.6199 32.2304 38.8198C31.8704 39.0358 31.4064 39.1438 30.8384 39.1438Z" fill="black"/>
<path d="M38.8926 39.1438C38.1326 39.1438 37.5406 38.9518 37.1166 38.5678C36.6926 38.1758 36.4806 37.5958 36.4806 36.8278V32.0998C36.4806 31.5829 36.8997 31.1638 37.4166 31.1638V31.1638C37.9336 31.1638 38.3526 31.5829 38.3526 32.0998V36.8038C38.3526 37.0758 38.4246 37.2878 38.5686 37.4398C38.7126 37.5838 38.9086 37.6558 39.1566 37.6558V37.6558C39.5595 37.6558 40.0572 37.7944 40.2009 38.1708L40.2322 38.2527C40.3407 38.537 40.2442 38.8673 39.9587 38.9729C39.8831 39.0008 39.8037 39.0258 39.7206 39.0478C39.4566 39.1118 39.1806 39.1438 38.8926 39.1438ZM36.2046 34.1758C35.807 34.1758 35.4846 33.8535 35.4846 33.4558V33.4558C35.4846 33.0582 35.807 32.7358 36.2046 32.7358H39.2406C39.6383 32.7358 39.9606 33.0582 39.9606 33.4558V33.4558C39.9606 33.8535 39.6383 34.1758 39.2406 34.1758H36.2046Z" fill="black"/>
<path d="M43.6395 39.1438C43.0875 39.1438 42.5555 39.0798 42.0435 38.9518C41.809 38.8886 41.5971 38.8184 41.4077 38.7413C41.0676 38.6028 40.9572 38.203 41.1118 37.87V37.87C41.3008 37.4627 41.8064 37.3137 42.2286 37.4665C42.3198 37.4995 42.4141 37.5306 42.5115 37.5598C42.9195 37.6718 43.3195 37.7278 43.7115 37.7278C44.1435 37.7278 44.4475 37.6758 44.6235 37.5718C44.8075 37.4678 44.8995 37.3238 44.8995 37.1398C44.8995 36.9878 44.8275 36.8758 44.6835 36.8038C44.5475 36.7238 44.3635 36.6638 44.1315 36.6238C43.8995 36.5838 43.6435 36.5438 43.3635 36.5038C43.0915 36.4638 42.8155 36.4118 42.5355 36.3478C42.2555 36.2758 41.9995 36.1718 41.7675 36.0358C41.5355 35.8998 41.3475 35.7158 41.2035 35.4838C41.0675 35.2518 40.9995 34.9518 40.9995 34.5838C40.9995 34.1758 41.1155 33.8158 41.3475 33.5038C41.5875 33.1918 41.9315 32.9478 42.3795 32.7718C42.8275 32.5878 43.3635 32.4958 43.9875 32.4958C44.4275 32.4958 44.8755 32.5438 45.3315 32.6398C45.5249 32.6805 45.7046 32.7292 45.8707 32.7857C46.2269 32.907 46.3504 33.3183 46.1908 33.659V33.659C46.0067 34.052 45.525 34.1882 45.1074 34.07C45.0383 34.0504 44.969 34.0337 44.8995 34.0198C44.5875 33.9478 44.2835 33.9118 43.9875 33.9118C43.5715 33.9118 43.2675 33.9678 43.0755 34.0798C42.8835 34.1918 42.7875 34.3358 42.7875 34.5118C42.7875 34.6718 42.8555 34.7918 42.9915 34.8718C43.1355 34.9518 43.3235 35.0158 43.5555 35.0638C43.7875 35.1118 44.0395 35.1558 44.3115 35.1958C44.5915 35.2278 44.8715 35.2798 45.1515 35.3518C45.4315 35.4238 45.6835 35.5278 45.9075 35.6638C46.1395 35.7918 46.3275 35.9718 46.4715 36.2038C46.6155 36.4278 46.6875 36.7238 46.6875 37.0918C46.6875 37.4918 46.5675 37.8478 46.3275 38.1598C46.0875 38.4638 45.7395 38.7038 45.2835 38.8798C44.8355 39.0558 44.2875 39.1438 43.6395 39.1438Z" fill="black"/>
</svg>
