<svg width="50" height="40" viewBox="0 0 50 40" fill="none" xmlns="http://www.w3.org/2000/svg">
<path d="M17.5608 16.6599H12.6444L12.346 19.2703H16.2555V21.9399H12.0409L11.7426 24.5503H16.2557V28.5251C16.2557 29.2459 16.84 29.8303 17.5608 29.8303C18.2816 29.8303 18.866 29.2459 18.866 28.5251V17.9651C18.866 17.2443 18.2816 16.6599 17.5608 16.6599Z" fill="#CD6200"/>
<path d="M5.12719 19.2703H8.16622L8.46463 16.66H5.09658C5.02373 14.7853 4.84373 12.8158 4.55588 10.7545C3.80826 5.40119 2.60287 1.48674 2.55197 1.32277C2.33816 0.634348 1.60655 0.249797 0.918368 0.463489C0.229949 0.6773 -0.15472 1.40867 0.0590905 2.09709C0.106433 2.24968 4.75593 17.4764 1.13787 28.1047C0.905554 28.787 1.27041 29.5285 1.95278 29.7608C2.09219 29.8083 2.23398 29.8308 2.37352 29.8308C2.91682 29.8308 3.42418 29.4888 3.60892 28.9459C4.07273 27.5834 4.43082 26.1168 4.68308 24.5504H7.56276L7.86117 21.9401H4.99798C5.06953 21.0763 5.11212 20.1858 5.12719 19.2703Z" fill="#CD6200"/>
<path d="M49.0816 0.46332C48.3931 0.249153 47.6618 0.63406 47.448 1.3226C47.3971 1.48657 46.1917 5.40102 45.4441 10.7544C45.1562 12.8156 44.9762 14.7852 44.9034 16.6598H41.5353L41.8338 19.2701H44.8728C44.8879 20.1857 44.9304 21.0761 45.002 21.9398H42.1388L42.4371 24.5501H45.3169C45.5692 26.1165 45.9272 27.583 46.3911 28.9456C46.5759 29.4886 47.083 29.8305 47.6265 29.8305C47.7659 29.8305 47.9079 29.8081 48.0472 29.7605C48.7296 29.5282 49.0944 28.7867 48.8621 28.1044C45.2518 17.4991 49.8869 2.27146 49.9409 2.0968C50.1548 1.4085 49.77 0.677131 49.0816 0.46332Z" fill="#CD6200"/>
<path d="M33.7443 21.9399V19.2703H37.6538L37.3554 16.6599H32.4391C31.7183 16.6599 31.1339 17.2443 31.1339 17.9651V28.5251C31.1339 29.2459 31.7183 29.8303 32.4391 29.8303C33.1599 29.8303 33.7443 29.2459 33.7443 28.5251V24.5503H38.2572L37.9589 21.9399H33.7443Z" fill="#CD6200"/>
<path d="M39.9367 9.4639H40.9586C42.0728 9.4639 42.976 8.56084 42.976 7.44682C42.976 6.33256 42.0728 5.42926 40.9586 5.42926H9.04143C7.92717 5.42926 7.02411 6.33256 7.02411 7.44682C7.02411 8.56084 7.92717 9.4639 9.04143 9.4639H10.0633L7.89288 28.4543C7.81101 29.1705 8.32525 29.8173 9.04143 29.8992C9.75785 29.9818 10.4045 29.4668 10.4864 28.7507L12.6906 9.46378H37.3094L39.5136 28.7507C39.5897 29.4165 40.1542 29.9078 40.8087 29.9078C40.8582 29.9078 40.9083 29.905 40.9586 29.8992C41.6748 29.8175 42.189 29.1705 42.1071 28.4543L39.9367 9.4639Z" fill="#CD6200"/>
<path d="M6.8405 39.5959C6.1365 39.5959 5.5205 39.4919 4.9925 39.2839C4.4645 39.0679 4.0525 38.7679 3.7565 38.3839C3.4605 37.9919 3.3125 37.5359 3.3125 37.0159C3.3125 36.4959 3.4565 36.0559 3.7445 35.6959C4.0405 35.3279 4.4525 35.0519 4.9805 34.8679C5.5085 34.6759 6.1285 34.5799 6.8405 34.5799C7.5605 34.5799 8.1845 34.6759 8.7125 34.8679C9.2485 35.0519 9.6605 35.3279 9.9485 35.6959C10.2445 36.0559 10.3925 36.4959 10.3925 37.0159C10.3925 37.5359 10.2445 37.9919 9.9485 38.3839C9.6525 38.7679 9.2365 39.0679 8.7005 39.2839C8.1725 39.4919 7.5525 39.5959 6.8405 39.5959ZM6.8405 38.1679C7.3285 38.1679 7.7125 38.0599 7.9925 37.8439C8.2805 37.6279 8.4245 37.3319 8.4245 36.9559C8.4245 36.5799 8.2805 36.2879 7.9925 36.0799C7.7125 35.8639 7.3285 35.7559 6.8405 35.7559C6.3605 35.7559 5.9805 35.8639 5.7005 36.0799C5.4205 36.2879 5.2805 36.5799 5.2805 36.9559C5.2805 37.3319 5.4205 37.6279 5.7005 37.8439C5.9805 38.0599 6.3605 38.1679 6.8405 38.1679ZM6.8405 35.5639C6.1925 35.5639 5.6245 35.4759 5.1365 35.2999C4.6565 35.1239 4.2805 34.8679 4.0085 34.5319C3.7445 34.1879 3.6125 33.7799 3.6125 33.3079C3.6125 32.8119 3.7485 32.3879 4.0205 32.0359C4.2925 31.6759 4.6725 31.3999 5.1605 31.2079C5.6485 31.0079 6.2085 30.9079 6.8405 30.9079C7.4885 30.9079 8.0525 31.0079 8.5325 31.2079C9.0205 31.3999 9.4005 31.6759 9.6725 32.0359C9.9525 32.3879 10.0925 32.8119 10.0925 33.3079C10.0925 33.7799 9.9565 34.1879 9.6845 34.5319C9.4205 34.8679 9.0445 35.1239 8.5565 35.2999C8.0685 35.4759 7.4965 35.5639 6.8405 35.5639ZM6.8405 34.4239C7.2485 34.4239 7.5685 34.3319 7.8005 34.1479C8.0405 33.9639 8.1605 33.7119 8.1605 33.3919C8.1605 33.0559 8.0365 32.7959 7.7885 32.6119C7.5485 32.4279 7.2325 32.3359 6.8405 32.3359C6.4565 32.3359 6.1445 32.4279 5.9045 32.6119C5.6645 32.7959 5.5445 33.0559 5.5445 33.3919C5.5445 33.7119 5.6605 33.9639 5.8925 34.1479C6.1245 34.3319 6.4405 34.4239 6.8405 34.4239Z" fill="#CD6200"/>
<path d="M17.2488 39.5479C16.6968 39.5479 16.1648 39.4839 15.6528 39.3559C15.4184 39.2927 15.2064 39.2225 15.017 39.1454C14.677 39.0069 14.5665 38.6071 14.7211 38.274C14.9102 37.8668 15.4158 37.7178 15.838 37.8706C15.9292 37.9036 16.0234 37.9347 16.1208 37.9639C16.5288 38.0759 16.9288 38.1319 17.3208 38.1319C17.7528 38.1319 18.0568 38.0799 18.2328 37.9759C18.4168 37.8719 18.5088 37.7279 18.5088 37.5439C18.5088 37.3919 18.4368 37.2799 18.2928 37.2079C18.1568 37.1279 17.9728 37.0679 17.7408 37.0279C17.5088 36.9879 17.2528 36.9479 16.9728 36.9079C16.7008 36.8679 16.4248 36.8159 16.1448 36.7519C15.8648 36.6799 15.6088 36.5759 15.3768 36.4399C15.1448 36.3039 14.9568 36.1199 14.8128 35.8879C14.6768 35.6559 14.6088 35.3559 14.6088 34.9879C14.6088 34.5799 14.7248 34.2199 14.9568 33.9079C15.1968 33.5959 15.5408 33.3519 15.9888 33.1759C16.4368 32.9919 16.9728 32.8999 17.5968 32.8999C18.0368 32.8999 18.4848 32.9479 18.9408 33.0439C19.1342 33.0846 19.3139 33.1333 19.48 33.1898C19.8362 33.3111 19.9597 33.7224 19.8001 34.0631C19.616 34.4561 19.1343 34.5923 18.7168 34.4741C18.6476 34.4545 18.5783 34.4378 18.5088 34.4239C18.1968 34.3519 17.8928 34.3159 17.5968 34.3159C17.1808 34.3159 16.8768 34.3719 16.6848 34.4839C16.4928 34.5959 16.3968 34.7399 16.3968 34.9159C16.3968 35.0759 16.4648 35.1959 16.6008 35.2759C16.7448 35.3559 16.9328 35.4199 17.1648 35.4679C17.3968 35.5159 17.6488 35.5599 17.9208 35.5999C18.2008 35.6319 18.4808 35.6839 18.7608 35.7559C19.0408 35.8279 19.2928 35.9319 19.5168 36.0679C19.7488 36.1959 19.9368 36.3759 20.0808 36.6079C20.2248 36.8319 20.2968 37.1279 20.2968 37.4959C20.2968 37.8959 20.1768 38.2519 19.9368 38.5639C19.6968 38.8679 19.3488 39.1079 18.8928 39.2839C18.4448 39.4599 17.8968 39.5479 17.2488 39.5479Z" fill="#CD6200"/>
<path d="M24.6558 39.5479C23.9198 39.5479 23.2718 39.4039 22.7118 39.1159C22.1598 38.8279 21.7318 38.4359 21.4278 37.9399C21.1238 37.4359 20.9718 36.8639 20.9718 36.2239C20.9718 35.5759 21.1198 35.0039 21.4158 34.5079C21.7198 34.0039 22.1318 33.6119 22.6518 33.3319C23.1718 33.0439 23.7598 32.8999 24.4158 32.8999C25.0478 32.8999 25.6158 33.0359 26.1198 33.3079C26.6318 33.5719 27.0358 33.9559 27.3318 34.4599C27.6278 34.9559 27.7758 35.5519 27.7758 36.2479C27.7758 36.3199 27.7718 36.4039 27.7638 36.4999C27.7508 36.643 27.6304 36.7519 27.4867 36.7519H23.0418C22.7403 36.7519 22.4958 36.5075 22.4958 36.2059C22.4958 35.9044 22.7403 35.6599 23.0418 35.6599H26.163C26.3001 35.6599 26.3403 35.8469 26.2153 35.9032C26.1311 35.9411 26.0355 35.8793 26.0276 35.7873C26.0058 35.5327 25.9406 35.3062 25.8318 35.1079C25.6958 34.8599 25.5078 34.6679 25.2678 34.5319C25.0278 34.3879 24.7478 34.3159 24.4278 34.3159C24.1078 34.3159 23.8238 34.3879 23.5758 34.5319C23.3358 34.6679 23.1478 34.8639 23.0118 35.1199C22.8758 35.3679 22.8078 35.6639 22.8078 36.0079V36.2959C22.8078 36.6479 22.8838 36.9599 23.0358 37.2319C23.1958 37.4959 23.4158 37.6999 23.6958 37.8439C23.9838 37.9799 24.3198 38.0479 24.7038 38.0479C25.0478 38.0479 25.3478 37.9959 25.6038 37.8919C25.6298 37.8817 25.6556 37.8709 25.6811 37.8597C26.0731 37.687 26.5626 37.6828 26.853 37.9977C27.1183 38.2854 27.128 38.7373 26.8061 38.9598C26.6234 39.086 26.4227 39.194 26.2038 39.2839C25.7558 39.4599 25.2398 39.5479 24.6558 39.5479Z" fill="#CD6200"/>
<path d="M33.6823 39.4519C33.1985 39.4519 32.8063 39.0597 32.8063 38.5759V38.3424C32.8063 38.2431 32.7859 38.1449 32.7463 38.0539C32.7068 37.9629 32.6863 37.8647 32.6863 37.7654V35.6599C32.6863 35.2599 32.5623 34.9479 32.3143 34.7239C32.0743 34.4999 31.7023 34.3879 31.1983 34.3879C30.8543 34.3879 30.5143 34.4439 30.1783 34.5559C30.1489 34.5653 30.1198 34.5749 30.0911 34.5849C29.6717 34.7309 29.1492 34.6198 28.9463 34.2248C28.7858 33.9124 28.8783 33.5235 29.1962 33.374C29.4225 33.2676 29.6699 33.1775 29.9383 33.1039C30.4343 32.9679 30.9383 32.8999 31.4503 32.8999C32.4343 32.8999 33.1983 33.1319 33.7423 33.5959C34.2863 34.0599 34.5583 34.7839 34.5583 35.7679V38.5759C34.5583 39.0597 34.1661 39.4519 33.6823 39.4519ZM30.8383 39.5479C30.3343 39.5479 29.9023 39.4639 29.5423 39.2959C29.1823 39.1199 28.9063 38.8839 28.7143 38.5879C28.5223 38.2919 28.4263 37.9599 28.4263 37.5919C28.4263 37.2079 28.5183 36.8719 28.7023 36.5839C28.8943 36.2959 29.1943 36.0719 29.6023 35.9119C30.0103 35.7439 30.5423 35.6599 31.1983 35.6599H32.3683C32.6699 35.6599 32.9143 35.9044 32.9143 36.2059C32.9143 36.5075 32.6699 36.7519 32.3683 36.7519H31.4023C30.9623 36.7519 30.6583 36.8239 30.4903 36.9679C30.3303 37.1119 30.2503 37.2919 30.2503 37.5079C30.2503 37.7479 30.3423 37.9399 30.5263 38.0839C30.7183 38.2199 30.9783 38.2879 31.3063 38.2879C31.6183 38.2879 31.8983 38.2159 32.1463 38.0719C32.162 38.0623 32.1774 38.0525 32.1925 38.0423C32.4208 37.8892 32.8567 37.9231 32.9437 38.1839C32.9636 38.2437 32.9644 38.3085 32.942 38.3673C32.8007 38.7385 32.5635 39.024 32.2303 39.2239C31.8703 39.4399 31.4063 39.5479 30.8383 39.5479Z" fill="#CD6200"/>
<path d="M38.8926 39.5479C38.1326 39.5479 37.5406 39.3559 37.1166 38.9719C36.6926 38.5799 36.4806 37.9999 36.4806 37.2319V32.5039C36.4806 31.987 36.8997 31.5679 37.4166 31.5679C37.9335 31.5679 38.3526 31.987 38.3526 32.5039V37.2079C38.3526 37.4799 38.4246 37.6919 38.5686 37.8439C38.7126 37.9879 38.9086 38.0599 39.1566 38.0599C39.5594 38.0599 40.0572 38.1985 40.2009 38.5749L40.2321 38.6568C40.3407 38.9411 40.2441 39.2714 39.9587 39.377C39.883 39.4049 39.8037 39.4299 39.7206 39.4519C39.4566 39.5159 39.1806 39.5479 38.8926 39.5479ZM36.2046 34.5799C35.8069 34.5799 35.4846 34.2576 35.4846 33.8599C35.4846 33.4623 35.8069 33.1399 36.2046 33.1399H39.2406C39.6382 33.1399 39.9606 33.4623 39.9606 33.8599C39.9606 34.2576 39.6382 34.5799 39.2406 34.5799H36.2046Z" fill="#CD6200"/>
<path d="M43.6394 39.5479C43.0874 39.5479 42.5554 39.4839 42.0434 39.3559C41.809 39.2927 41.5971 39.2225 41.4076 39.1454C41.0676 39.0069 40.9571 38.6071 41.1117 38.274C41.3008 37.8668 41.8064 37.7178 42.2286 37.8706C42.3198 37.9036 42.4141 37.9347 42.5114 37.9639C42.9194 38.0759 43.3194 38.1319 43.7114 38.1319C44.1434 38.1319 44.4474 38.0799 44.6234 37.9759C44.8074 37.8719 44.8994 37.7279 44.8994 37.5439C44.8994 37.3919 44.8274 37.2799 44.6834 37.2079C44.5474 37.1279 44.3634 37.0679 44.1314 37.0279C43.8994 36.9879 43.6434 36.9479 43.3634 36.9079C43.0914 36.8679 42.8154 36.8159 42.5354 36.7519C42.2554 36.6799 41.9994 36.5759 41.7674 36.4399C41.5354 36.3039 41.3474 36.1199 41.2034 35.8879C41.0674 35.6559 40.9994 35.3559 40.9994 34.9879C40.9994 34.5799 41.1154 34.2199 41.3474 33.9079C41.5874 33.5959 41.9314 33.3519 42.3794 33.1759C42.8274 32.9919 43.3634 32.8999 43.9874 32.8999C44.4274 32.8999 44.8754 32.9479 45.3314 33.0439C45.5248 33.0846 45.7046 33.1333 45.8706 33.1898C46.2268 33.3111 46.3504 33.7224 46.1907 34.0631C46.0066 34.4561 45.525 34.5923 45.1074 34.4741C45.0383 34.4545 44.9689 34.4378 44.8994 34.4239C44.5874 34.3519 44.2834 34.3159 43.9874 34.3159C43.5714 34.3159 43.2674 34.3719 43.0754 34.4839C42.8834 34.5959 42.7874 34.7399 42.7874 34.9159C42.7874 35.0759 42.8554 35.1959 42.9914 35.2759C43.1354 35.3559 43.3234 35.4199 43.5554 35.4679C43.7874 35.5159 44.0394 35.5599 44.3114 35.5999C44.5914 35.6319 44.8714 35.6839 45.1514 35.7559C45.4314 35.8279 45.6834 35.9319 45.9074 36.0679C46.1394 36.1959 46.3274 36.3759 46.4714 36.6079C46.6154 36.8319 46.6874 37.1279 46.6874 37.4959C46.6874 37.8959 46.5674 38.2519 46.3274 38.5639C46.0874 38.8679 45.7394 39.1079 45.2834 39.2839C44.8354 39.4599 44.2874 39.5479 43.6394 39.5479Z" fill="#CD6200"/>
</svg>
